<?xml version="1.0" encoding="UTF-8"?>
<svg width="37" height="37" xmlns="http://www.w3.org/2000/svg" version="1.1" xmlns:xlink="http://www.w3.org/1999/xlink" xmlns:avocode="https://avocode.com/" viewBox="0 0 37 37"><defs></defs><desc>Generated with Avocode.</desc><g><g><title>barbecue</title><g><title>Shape</title><path d="M18.495,35.54469c-9.40137,0 -17.04969,-7.64832 -17.04969,-17.04969c0,-9.40137 7.64832,-17.04969 17.04969,-17.04969c9.40137,0 17.04969,7.64832 17.04969,17.04969c0,9.40137 -7.64832,17.04969 -17.04969,17.04969zM31.58149,5.41851c-3.49416,-3.49416 -8.14005,-5.41851 -13.08149,-5.41851c-4.94144,0 -9.58733,1.92435 -13.08149,5.41851c-3.49416,3.49416 -5.41851,8.14005 -5.41851,13.08149c0,4.94144 1.92435,9.58733 5.41851,13.08149c3.49416,3.49416 8.14005,5.41851 13.08149,5.41851c4.94144,0 9.58733,-1.92435 13.08149,-5.41851c3.49416,-3.49416 5.41851,-8.14005 5.41851,-13.08149c0,-4.94144 -1.92435,-9.58733 -5.41851,-13.08149z" fill="#ffffff" fill-opacity="1"></path></g><g><title>Shape</title><path d="M8.67029,27.76441h5.07299c0.77544,1.86338 2.61483,3.17743 4.7557,3.17743c2.14087,0 3.98025,-1.31377 4.7557,-3.17743h5.07299c-2.46578,2.61455 -5.95994,4.24928 -9.82869,4.24928c-3.86875,0 -7.36291,-1.63473 -9.82869,-4.24928zM10.6939,10.68093c-1.00584,0.30882 -1.9142,0.88469 -2.62927,1.68356c-0.66071,0.7379 -1.11517,1.61949 -1.33633,2.56572h-1.25942c0.4229,-1.53565 1.11094,-2.97193 2.01704,-4.24928zM19.23282,14.93021h-2.52752c0.23581,-0.34355 0.32541,-0.77065 0.23948,-1.18505c-0.17017,-0.82117 -0.59025,-1.55202 -1.21487,-2.1132c-0.47502,-0.42682 -1.0464,-0.74722 -1.67243,-0.95103h3.26034c-0.10677,0.83727 0.09552,1.71095 0.62153,2.44461zM20.74317,9.11593c0.40565,0 0.81412,0.12421 1.16642,0.37742l7.39791,5.3135c0.83387,0.59901 1.36006,1.52943 1.44333,2.55272c0.08356,1.0233 -0.28511,2.02683 -1.01115,2.75287c-0.72604,0.72605 -1.72986,1.095 -2.75287,1.01116c-1.02329,-0.08328 -1.95371,-0.60946 -2.55273,-1.44362l-5.31321,-7.39763c-0.57361,-0.79887 -0.48526,-1.88342 0.21002,-2.57898c0.38843,-0.38843 0.89824,-0.58744 1.41228,-0.58744zM29.50425,10.68093c0.98744,1.38885 1.71772,2.96515 2.12817,4.65125c-0.35202,-0.66478 -0.85449,-1.24884 -1.48173,-1.69937l-4.11039,-2.95188zM14.79538,25.79291c0,-2.04235 1.65902,-3.70361 3.69861,-3.70361c2.03959,0 3.69862,1.66126 3.69862,3.70361c0,2.04207 -1.65903,3.70362 -3.69862,3.70362c-2.03959,0 -3.69861,-1.66155 -3.69861,-3.70362zM15.50984,14.12721c-0.02428,0.02543 -0.05392,0.03533 -0.08723,0.02996c-0.94961,-0.15405 -1.94242,0.03505 -2.79606,0.53252c-0.22046,0.12833 -0.35681,0.36377 -0.35907,0.61929c-0.00197,0.25552 0.13042,0.49323 0.34891,0.62552l2.872,1.73718c0.17219,0.10401 0.21933,0.26314 0.23204,0.34879c0.0127,0.08564 0.01411,0.25155 -0.12026,0.40137l-0.70261,0.78435c-0.13437,0.14981 -0.29979,0.16592 -0.38561,0.16309c-0.08638,-0.00338 -0.24926,-0.03306 -0.37149,-0.19333l-2.03529,-2.67079c-0.15498,-0.20322 -0.40537,-0.30978 -0.65886,-0.27982c-0.25321,0.02968 -0.47227,0.19136 -0.57615,0.42455c-0.40113,0.90364 -0.48158,1.91242 -0.22611,2.84066c0.00903,0.03278 0.00226,0.06303 -0.02033,0.09017c-0.03302,0.03928 -0.07,0.0359 -0.08186,0.03476c-0.52562,-0.05088 -1.012,-0.26513 -1.40636,-0.6193c-1.49499,-1.34344 -1.49019,-3.99048 0.0096,-5.66463c1.50008,-1.67443 4.12789,-1.965 5.62317,-0.62268c0.39436,0.35445 0.65971,0.81545 0.76698,1.33299c0.00254,0.01187 0.01016,0.04805 -0.02541,0.08536zM12.03771,19.09649c-0.03642,-0.13126 -0.06182,-0.26648 -0.07679,-0.40395l1.03064,1.35075c0.19336,0.25321 0.44206,0.45081 0.72265,0.58123h-2.1005c0.04065,-0.03868 0.07961,-0.08017 0.1163,-0.12393c0.32746,-0.38955 0.44263,-0.91461 0.3077,-1.4041zM23.26005,20.5137c0.02484,0.03436 0.05138,0.06731 0.07706,0.10082h-7.9893c0.23458,-0.1087 0.44799,-0.26416 0.62555,-0.46186l0.70261,-0.78122c0.38674,-0.43005 0.5595,-1.00427 0.47396,-1.5754c-0.08553,-0.57141 -0.41863,-1.07046 -0.91404,-1.36897l-0.08554,-0.05154h4.13072zM8.16213,20.05382c0.24864,0.22304 0.52065,0.41032 0.81039,0.56071h-3.82022c-0.10926,-0.69054 -0.16698,-1.39825 -0.16698,-2.11949c0,-0.7187 0.058,-1.42671 0.16895,-2.1195h1.41777v0.00366c0.02731,1.45261 0.60709,2.79202 1.59009,3.67462zM5.46493,22.06983h9.4926c-0.98396,0.93832 -1.59915,2.25999 -1.59915,3.72309c0,0.17756 0.00904,0.35314 0.02656,0.52619h-5.9001c-0.90568,-1.27143 -1.59632,-2.70573 -2.01992,-4.24928zM29.51497,26.3191h-5.89388c0.01778,-0.17304 0.02682,-0.34863 0.02682,-0.52618c0,-1.4631 -0.61454,-2.78477 -1.59775,-3.7231h3.03233c0.55244,0.27298 1.1571,0.44291 1.78688,0.49429c0.13494,0.01101 0.26931,0.01666 0.40339,0.01666c1.30445,0 2.55781,-0.51546 3.4888,-1.44645c0.58631,-0.58603 1.00692,-1.3005 1.23867,-2.07481c-0.11037,2.69726 -1.01426,5.19353 -2.48526,7.25959zM30.06657,9.01459c-2.15668,-2.62725 -5.16615,-4.45732 -8.47371,-5.15316c-0.39097,-0.08186 -0.77375,0.16796 -0.85618,0.55836c-0.08215,0.39069 0.16796,0.77404 0.55865,0.85618c2.75992,0.58039 5.1828,2.00199 7.02388,3.95965h-4.28005c-0.00339,0 -0.00677,0.00056 -0.01044,0.00056l-1.27594,-0.91658c-1.37672,-0.98886 -3.24546,-0.83642 -4.44406,0.36189c-0.17191,0.17191 -0.32152,0.35794 -0.44996,0.55413h-9.18508c1.85717,-1.97488 4.30771,-3.40298 7.10123,-3.97461c0.39097,-0.08017 0.64305,-0.4621 0.56288,-0.85307c-0.07989,-0.39097 -0.46182,-0.64305 -0.85279,-0.56317c-3.32648,0.68088 -6.35542,2.50615 -8.52876,5.13961c-2.20297,2.66932 -3.41624,6.04886 -3.41624,9.51564c0,8.24844 6.71054,14.95898 14.95898,14.95898c8.24845,0 14.95899,-6.71054 14.95899,-14.95898c0,-3.45266 -1.20424,-6.8212 -3.3914,-9.48543z" fill="#ffffff" fill-opacity="1"></path></g><g><title>Path</title><path d="M18.50263,4.98531c0.18997,0 0.37655,-0.07734 0.51092,-0.21171c0.13436,-0.13437 0.2117,-0.32096 0.2117,-0.51094c0,-0.19083 -0.07734,-0.37658 -0.2117,-0.51094c-0.13436,-0.13437 -0.32094,-0.21172 -0.51092,-0.21172c-0.18997,0 -0.37656,0.07735 -0.51092,0.21172c-0.13436,0.13436 -0.21171,0.32096 -0.21171,0.51094c0,0.18998 0.07735,0.37657 0.21171,0.51094c0.13435,0.13437 0.32094,0.21171 0.51092,0.21171z" fill="#ffffff" fill-opacity="1"></path></g><g><title>Path</title><path d="M28.42273,17.65707c0.1849,0 0.36979,-0.07057 0.51094,-0.21171l0.33169,-0.33169c0.28228,-0.28229 0.28228,-0.73988 0,-1.02217c-0.28229,-0.282 -0.73988,-0.282 -1.02217,0l-0.33169,0.33169c-0.282,0.28229 -0.282,0.73988 0,1.02217c0.14115,0.14114 0.32633,0.21171 0.51123,0.21171z" fill="#ffffff" fill-opacity="1"></path></g><g><title>Path</title><path d="M24.70172,17.59769c0.14114,0.14114 0.32604,0.21172 0.51094,0.21172c0.18489,0 0.36979,-0.07058 0.51094,-0.21172l0.20409,-0.20409c0.28229,-0.28201 0.28229,-0.7396 0,-1.02188c-0.28229,-0.28229 -0.73959,-0.28229 -1.02188,0l-0.20409,0.20409c-0.28229,0.282 -0.28229,0.73959 0,1.02188z" fill="#ffffff" fill-opacity="1"></path></g><g><title>Path</title><path d="M23.60294,14.0605c0.1849,0 0.3698,-0.07057 0.51094,-0.21172l0.25519,-0.2549c0.282,-0.28229 0.282,-0.73988 0,-1.02216c-0.28229,-0.28229 -0.73988,-0.28229 -1.02217,0l-0.25518,0.25518c-0.28229,0.28229 -0.28229,0.73988 0,1.02188c0.14114,0.14115 0.32604,0.21172 0.51122,0.21172z" fill="#ffffff" fill-opacity="1"></path></g><g><title>Path</title><path d="M21.25273,13.65723c0.1849,0 0.36979,-0.07057 0.51094,-0.21171l0.10219,-0.1019c0.282,-0.28228 0.282,-0.73985 0,-1.02213c-0.28229,-0.28199 -0.73988,-0.28199 -1.02217,0l-0.10219,0.10219c-0.282,0.282 -0.282,0.73957 0,1.02184c0.14143,0.14114 0.32633,0.21171 0.51123,0.21171z" fill="#ffffff" fill-opacity="1"></path></g><g><title>Path</title><path d="M18.50263,24.97277c0.39913,0 0.72262,-0.32379 0.72262,-0.72266v-0.32745c0,-0.39888 -0.32348,-0.72266 -0.72262,-0.72266c-0.39914,0 -0.72263,0.32378 -0.72263,0.72266v0.32745c0,0.39887 0.32348,0.72266 0.72263,0.72266z" fill="#ffffff" fill-opacity="1"></path></g><g><title>Path</title><path d="M16.46937,25.92021l0.31137,0.10106c0.07424,0.02399 0.14933,0.03556 0.22329,0.03556c0.30458,0 0.588,-0.19421 0.68737,-0.49965c0.12307,-0.37939 -0.08441,-0.7873 -0.46408,-0.91065l-0.31108,-0.10106c-0.37968,-0.12308 -0.78759,0.0844 -0.91066,0.46408c-0.12336,0.37967 0.0844,0.7873 0.46379,0.91066z" fill="#ffffff" fill-opacity="1"></path></g><g><title>Path</title><path d="M17.99971,26.50789c-0.32294,-0.2343 -0.77488,-0.16288 -1.00946,0.16006l-0.19224,0.26506c-0.23458,0.32266 -0.16288,0.7746 0.16006,1.00918c0.12816,0.09316 0.27692,0.13804 0.42399,0.13804c0.22358,0 0.44404,-0.10332 0.58547,-0.29809l0.19224,-0.26479c0.23458,-0.32294 0.16288,-0.77488 -0.16006,-1.00946z" fill="#ffffff" fill-opacity="1"></path></g><g><title>Path</title><path d="M20.00753,26.66795c-0.23458,-0.32294 -0.68652,-0.39436 -1.00946,-0.16006c-0.32294,0.23458 -0.39464,0.68652 -0.16006,1.00946l0.19224,0.26479c0.14143,0.19477 0.36189,0.29809 0.58546,0.29809c0.14708,0 0.29584,-0.04488 0.424,-0.13804c0.32294,-0.23458 0.39464,-0.68652 0.16006,-1.00918z" fill="#ffffff" fill-opacity="1"></path></g><g><title>Path</title><path d="M19.99281,26.05683c0.07396,0 0.14905,-0.01157 0.22357,-0.03556l0.31108,-0.10106c0.37968,-0.12336 0.58716,-0.53099 0.46408,-0.91066c-0.12336,-0.37968 -0.5307,-0.58716 -0.91066,-0.46408l-0.31136,0.10106c-0.37939,0.12335 -0.58716,0.53126 -0.46408,0.91065c0.09937,0.30544 0.38278,0.49965 0.68737,0.49965z" fill="#ffffff" fill-opacity="1"></path></g></g></g></svg>
