<?xml version="1.0" encoding="UTF-8"?>
<svg width="41" height="37" xmlns="http://www.w3.org/2000/svg" version="1.1" xmlns:xlink="http://www.w3.org/1999/xlink" xmlns:avocode="https://avocode.com/" viewBox="0 0 41 37"><defs></defs><desc>Generated with Avocode.</desc><g><g><title>food</title><g><title>Path</title><path d="M12.53988,12.24724c0.13326,0.13298 0.30811,0.19978 0.48329,0.19978c0.17485,0 0.34971,-0.0668 0.48297,-0.19978c0.26713,-0.26659 0.26713,-0.69768 0,-0.96427c-0.69349,-0.69269 -0.69349,-1.81928 0,-2.51197c0.59464,-0.59342 0.92246,-1.38163 0.92246,-2.22041c0,-0.83878 -0.32719,-1.62731 -0.92246,-2.22042c-0.26714,-0.26689 -0.69912,-0.26689 -0.96626,0c-0.26713,0.26659 -0.26713,0.69769 0,0.96396c0.33627,0.33558 0.52239,0.78166 0.52239,1.25614c0,0.4748 -0.1855,0.92057 -0.52239,1.25615c-1.22651,1.22399 -1.22651,3.21683 0,4.44082z" fill="#ffffff" fill-opacity="1"></path></g><g><title>Path</title><path d="M27.56988,12.24724c0.13326,0.13298 0.30811,0.19978 0.48297,0.19978c0.17517,0 0.35003,-0.0668 0.48329,-0.19978c0.26713,-0.26659 0.26713,-0.69768 0,-0.96427c-0.69349,-0.69269 -0.69349,-1.81928 0,-2.51197c0.59433,-0.59342 0.92246,-1.38163 0.92246,-2.22041c0,-0.83878 -0.32719,-1.62731 -0.92246,-2.22042c-0.26714,-0.26689 -0.69912,-0.26689 -0.96626,0c-0.26713,0.26659 -0.26713,0.69769 0,0.96396c0.33627,0.33558 0.52207,0.78166 0.52207,1.25614c0,0.4748 -0.18518,0.92057 -0.52207,1.25615c-1.22651,1.22399 -1.22651,3.21683 0,4.44082z" fill="#ffffff" fill-opacity="1"></path></g><g><title>Path</title><path d="M20.05983,8.15724c0.13326,0.13298 0.30843,0.19978 0.48328,0.19978c0.17485,0 0.34971,-0.0668 0.48296,-0.19978c0.26745,-0.26659 0.26745,-0.69768 0,-0.96427c-0.69348,-0.69269 -0.69348,-1.81928 0,-2.51228c0.59463,-0.59311 0.92245,-1.38164 0.92245,-2.22042c0,-0.83846 -0.32719,-1.62699 -0.92245,-2.2201c-0.26714,-0.26689 -0.69911,-0.26689 -0.96593,0c-0.26745,0.26659 -0.26745,0.69738 0,0.96396c0.33595,0.33558 0.52206,0.78166 0.52206,1.25614c0,0.47449 -0.18518,0.92057 -0.52206,1.25615c-1.22681,1.22399 -1.22681,3.21683 -0.00032,4.44082z" fill="#ffffff" fill-opacity="1"></path></g><g><title>Path</title><path d="M17.32302,17.57284c0.04974,0 0.10041,-0.00531 0.15108,-0.01624c0.98253,-0.22101 1.99851,-0.33307 3.02107,-0.33307h0.00876c0.37724,0 0.68316,-0.30467 0.68316,-0.68114c0,-0.3771 -0.3053,-0.68239 -0.68316,-0.68239c-0.00282,0 -0.00626,0 -0.0097,0c-1.12265,0 -2.23999,0.1233 -3.32072,0.36617c-0.36849,0.08241 -0.59934,0.44733 -0.51676,0.81474c0.07258,0.31716 0.35379,0.53193 0.66628,0.53193z" fill="#ffffff" fill-opacity="1"></path></g><g><title>Path</title><path d="M6.71064,28.80328c0.04192,0.00811 0.0829,0.01155 0.12294,0.01155c0.32406,0 0.61184,-0.23069 0.6719,-0.5594c0.71007,-3.88548 3.05642,-7.343 6.27706,-9.24688c0.32438,-0.19135 0.43199,-0.61027 0.23993,-0.9343c-0.19269,-0.32371 -0.61154,-0.43078 -0.93623,-0.23911c-3.55628,2.1021 -6.14443,5.90611 -6.92488,10.17493c-0.06819,0.37116 0.17767,0.72547 0.54928,0.79321z" fill="#ffffff" fill-opacity="1"></path></g><g><title>Shape</title><path d="M20.495,35.63386c-11.67928,0 -19.12835,-2.91123 -19.12835,-4.43239c0,-0.26128 0.32367,-0.8366 1.41007,-1.58735c-0.00282,0.03871 -0.00157,0.07679 -0.00438,0.11581c-0.02314,0.37366 -0.0394,0.75013 -0.0394,1.13065v0.53724l0.5238,0.12611c5.63904,1.35042 11.4388,2.02687 17.23794,2.02687c5.79945,0 11.59954,-0.67583 17.23825,-2.02687l0.52381,-0.12611v-0.53724c0,-0.38052 -0.01627,-0.75636 -0.03972,-1.13065c-0.0025,-0.03902 -0.00125,-0.0771 -0.00406,-0.11581c1.0864,0.75075 1.41007,1.32607 1.41007,1.58735c0.00031,1.52116 -7.44876,4.43239 -19.12805,4.43239zM18.03916,14.67839c0.36692,-0.05463 0.73603,-0.09428 1.10639,-0.12425c0.07601,-0.00624 0.15171,-0.01155 0.22741,-0.01685c0.75042,-0.05057 1.50428,-0.05057 2.25439,0c0.07601,0.0053 0.15171,0.01061 0.22772,0.01685c0.37036,0.02997 0.73947,0.06962 1.10608,0.12425c7.11913,1.07383 12.749,6.73178 13.77062,13.85408c0.03128,0.21883 0.05662,0.43828 0.07914,0.65804c0.00751,0.07554 0.01783,0.15046 0.02471,0.22632c0.02659,0.30186 0.0463,0.60403 0.056,0.9062c-10.73517,2.48295 -22.04714,2.48295 -32.7823,0c0.01032,-0.30217 0.0294,-0.60434 0.05599,-0.9062c0.00688,-0.07586 0.01658,-0.15078 0.0244,-0.22632c0.02252,-0.22039 0.04786,-0.44015 0.07945,-0.65804c1.02131,-7.1223 6.65118,-12.78087 13.77,-13.85408zM18.44987,13.13955c0,-1.13306 0.91996,-2.05538 2.05013,-2.05538c1.13016,0 2.05012,0.92232 2.05012,2.05538c0,0.0392 -0.00125,0.07809 -0.00407,0.11792c-0.03222,-0.00346 -0.06443,-0.00471 -0.09571,-0.00816c-0.23492,-0.02603 -0.47171,-0.04454 -0.70945,-0.06115c-0.08727,-0.00596 -0.17423,-0.01506 -0.2615,-0.01976c-0.32407,-0.01787 -0.65001,-0.02822 -0.97846,-0.02822c-0.32875,0 -0.6547,0.01035 -0.97876,0.02822c-0.08728,0.0047 -0.17424,0.0138 -0.26151,0.01976c-0.23773,0.01662 -0.47421,0.03574 -0.70944,0.06115c-0.03285,0.00345 -0.06506,0.00408 -0.09697,0.00816c-0.00282,-0.03983 -0.00438,-0.07935 -0.00438,-0.11792zM38.00958,27.87568c-1.23808,-7.25653 -6.90642,-13.02217 -14.12253,-14.41878c0.01189,-0.10895 0.02941,-0.21883 0.02941,-0.32715c0,-1.88015 -1.53243,-3.40975 -3.41646,-3.40975c-1.88403,0 -3.41677,1.5296 -3.41677,3.40975c0,0.10832 0.0172,0.2182 0.0294,0.32715c-7.2161,1.39661 -12.88413,7.16225 -14.12253,14.41878c-1.42795,0.80663 -2.9901,1.99379 -2.9901,3.32578c0,3.46751 10.59972,5.79624 20.5,5.79624c9.89997,0 20.5,-2.32873 20.5,-5.79624c0,-1.33199 -1.56215,-2.51915 -2.99042,-3.32578z" fill="#ffffff" fill-opacity="1"></path></g></g></g></svg>
