<?xml version="1.0" encoding="UTF-8"?>
<svg width="43" height="45" xmlns="http://www.w3.org/2000/svg" version="1.1" xmlns:xlink="http://www.w3.org/1999/xlink" xmlns:avocode="https://avocode.com/" viewBox="0 0 43 45"><defs></defs><desc>Generated with Avocode.</desc><g><g transform="rotate(-31 21.5 22.5)"><title>mix</title><g><title>Shape</title><path d="M8.154,37.54719v-30.01448h26.55191v30.01448zM8.731,39.61578l-0.577,-0.58334v-0.34125h1.72811c-0.14656,0.00059 -0.29312,0.05717 -0.40505,0.17033zM11.03899,39.61578l-0.74606,-0.75426c-0.11193,-0.11316 -0.25849,-0.16975 -0.40505,-0.17033h2.30222c-0.14656,0.00059 -0.29311,0.05717 -0.40505,0.17033zM13.34698,39.61578l-0.74606,-0.75426c-0.11193,-0.11316 -0.25849,-0.16975 -0.40505,-0.17033h2.30222c-0.14656,0.00059 -0.29311,0.05717 -0.40505,0.17033zM15.65999,39.61578l-0.7493,-0.75426c-0.11242,-0.11316 -0.25961,-0.16975 -0.40681,-0.17033h2.30797c0.00071,0 0.00142,0.00001 0.00212,0.00001c0,0 0,0 0,0c-0.14649,0.00112 -0.29279,0.05771 -0.40468,0.17032zM16.81397,38.69121c0.00071,-0.00001 0.00142,-0.00001 0.00213,-0.00001h2.29796c-0.14656,0.00059 -0.29311,0.05717 -0.40505,0.17033l-0.74606,0.75426l-0.74606,-0.75426c-0.11139,-0.11261 -0.25708,-0.1692 -0.40293,-0.17032c0,0 0,0 0,0zM20.27095,39.61578l-0.74606,-0.75426c-0.11193,-0.11316 -0.25849,-0.16975 -0.40505,-0.17033h2.30222c-0.14656,0.00059 -0.29311,0.05717 -0.40505,0.17033zM22.57895,39.61578l-0.74606,-0.75426c-0.11193,-0.11316 -0.25849,-0.16975 -0.40505,-0.17033h2.30222c-0.14656,0.00059 -0.29311,0.05717 -0.40505,0.17033zM24.88694,39.61578l-0.74606,-0.75426c-0.11193,-0.11316 -0.25849,-0.16975 -0.40505,-0.17033h2.30222c-0.14656,0.00059 -0.29311,0.05717 -0.40505,0.17033zM27.19995,39.61578l-0.7493,-0.75426c-0.11242,-0.11316 -0.25961,-0.16975 -0.40681,-0.17033h2.30797c0.00071,0 0.00142,0.00001 0.00212,0.00001c0.14585,0.00112 0.29154,0.05771 0.40293,0.17032l0.74606,0.75426l0.74606,-0.75426c0.11194,-0.11316 0.25849,-0.16975 0.40505,-0.17033h-2.29796c-0.00071,0 -0.00142,0.00001 -0.00213,0.00001c0,0 0,0 0,0c-0.14649,0.00112 -0.29279,0.05771 -0.40468,0.17032zM31.81092,39.61578l-0.74606,-0.75426c-0.11193,-0.11316 -0.25849,-0.16975 -0.40505,-0.17033h2.30222c-0.14656,0.00059 -0.29311,0.05717 -0.40505,0.17033zM34.11891,39.61578l-0.74606,-0.75426c-0.11193,-0.11316 -0.25849,-0.16975 -0.40505,-0.17033h1.72811v0.34125zM8.73122,5.46359l0.74634,0.74606c0.11255,0.11251 0.26032,0.16906 0.40808,0.16906c0.14778,0 0.29554,-0.05655 0.40809,-0.16906l0.74634,-0.74606l0.74634,0.74606c0.11255,0.11251 0.26032,0.16906 0.40809,0.16906c0.14777,0 0.29553,-0.05655 0.40808,-0.16906l0.74634,-0.74606l0.74634,0.74606c0.11256,0.11251 0.26033,0.16906 0.40809,0.16906c0.14777,0 0.29553,-0.05655 0.40809,-0.16906l0.74633,-0.74606l0.74634,0.74606c0.11256,0.11251 0.26033,0.16906 0.40809,0.16906c0.14777,0 0.29553,-0.05655 0.40809,-0.16906l0.74634,-0.74606l0.74634,0.74606c0.11255,0.11251 0.26032,0.16906 0.40808,0.16906c0.14777,0 0.29554,-0.05655 0.40809,-0.16906l0.74634,-0.74606l0.74634,0.74606c0.11255,0.11251 0.26032,0.16906 0.40809,0.16906c0.14777,0 0.29553,-0.05655 0.40808,-0.16906l0.74634,-0.74606l0.74634,0.74606c0.11255,0.11251 0.26033,0.16906 0.40809,0.16906c0.14777,0 0.29553,-0.05655 0.40808,-0.16906l0.74634,-0.74606l0.74634,0.74606c0.11256,0.11251 0.26033,0.16906 0.40809,0.16906c0.14777,0 0.29553,-0.05655 0.40809,-0.16906l0.74634,-0.74606l0.74633,0.74606c0.11256,0.11251 0.26033,0.16906 0.40809,0.16906c0.14777,0 0.29553,-0.05655 0.40809,-0.16906l0.74634,-0.74606l0.74634,0.74606c0.11255,0.11251 0.26032,0.16906 0.40808,0.16906c0.14778,0 0.29554,-0.05655 0.40809,-0.16906l0.74634,-0.74606l0.74634,0.74606c0.11255,0.11251 0.26032,0.16906 0.40809,0.16906c0.14777,0 0.29553,-0.05655 0.40808,-0.16906l0.74634,-0.74606l0.57722,0.577v0.33812h-26.55191v-0.33812zM7.16964,39.67612l1.15342,1.15342c0.11251,0.11251 0.26022,0.16906 0.40793,0.16906c0.14772,0 0.29543,-0.05655 0.40794,-0.16906l0.74606,-0.74606l0.74606,0.74606c0.11251,0.11251 0.26022,0.16906 0.40794,0.16906c0.14771,0 0.29542,-0.05655 0.40793,-0.16906l0.74606,-0.74606l0.74606,0.74606c0.11252,0.11251 0.26023,0.16906 0.40794,0.16906c0.14771,0 0.29542,-0.05655 0.40794,-0.16906l0.74605,-0.74606l0.74606,0.74606c0.11252,0.11251 0.26023,0.16906 0.40794,0.16906c0.14771,0 0.29542,-0.05655 0.40794,-0.16906l0.74606,-0.74606l0.74606,0.74606c0.11251,0.11251 0.26022,0.16906 0.40793,0.16906c0.14771,0 0.29543,-0.05655 0.40794,-0.16906l0.74606,-0.74606l0.74606,0.74606c0.11251,0.11251 0.26022,0.16906 0.40794,0.16906c0.14771,0 0.29542,-0.05655 0.40793,-0.16906l0.74606,-0.74606l0.74606,0.74606c0.11251,0.11251 0.26023,0.16906 0.40794,0.16906c0.14771,0 0.29542,-0.05655 0.40793,-0.16906l0.74606,-0.74606l0.74606,0.74606c0.11252,0.11251 0.26023,0.16906 0.40794,0.16906c0.14771,0 0.29542,-0.05655 0.40794,-0.16906l0.74606,-0.74606l0.74605,0.74606c0.11252,0.11251 0.26023,0.16906 0.40794,0.16906c0.14771,0 0.29542,-0.05655 0.40794,-0.16906l0.74606,-0.74606l0.74606,0.74606c0.11251,0.11251 0.26022,0.16906 0.40793,0.16906c0.14772,0 0.29543,-0.05655 0.40794,-0.16906l0.74606,-0.74606l0.74606,0.74606c0.11251,0.11251 0.26022,0.16906 0.40794,0.16906c0.14771,0 0.29542,-0.05655 0.40793,-0.16906l0.74606,-0.74606l0.74606,0.74606c0.11252,0.11251 0.26023,0.16906 0.40794,0.16906c0.14771,0 0.29542,-0.05655 0.40794,-0.16906l1.15342,-1.15342c0.05366,-0.05309 0.09578,-0.11713 0.1252,-0.1881c0.02943,-0.0704 0.04443,-0.14541 0.04443,-0.22042v-33.46588c0,-0.07501 -0.015,-0.15002 -0.04443,-0.22042c-0.02942,-0.07097 -0.07154,-0.13444 -0.1252,-0.1881l-1.15342,-1.154c-0.22561,-0.2256 -0.59027,-0.2256 -0.81588,0l-0.74606,0.74664l-0.74606,-0.74606c-0.2256,-0.2256 -0.59027,-0.2256 -0.81587,0l-0.74606,0.74606l-0.74606,-0.74606c-0.2256,-0.2256 -0.59027,-0.2256 -0.81587,0l-0.74606,0.74606l-0.74606,-0.74606c-0.22561,-0.2256 -0.59027,-0.2256 -0.81588,0l-0.74605,0.74606l-0.74606,-0.74606c-0.22561,-0.2256 -0.59027,-0.2256 -0.81588,0l-0.74606,0.74606l-0.74606,-0.74606c-0.2256,-0.2256 -0.59026,-0.2256 -0.81587,0l-0.74606,0.74606l-0.74606,-0.74606c-0.2256,-0.2256 -0.59027,-0.2256 -0.81587,0l-0.74606,0.74606l-0.74606,-0.74606c-0.22561,-0.2256 -0.59027,-0.2256 -0.81587,0l-0.74606,0.74606l-0.74606,-0.74606c-0.22561,-0.2256 -0.59027,-0.2256 -0.81588,0l-0.74606,0.74606l-0.74605,-0.74606c-0.22561,-0.2256 -0.59027,-0.2256 -0.81588,0l-0.74606,0.74606l-0.74606,-0.74606c-0.2256,-0.2256 -0.59027,-0.2256 -0.81587,0l-0.74606,0.74606l-0.74606,-0.74606c-0.2256,-0.2256 -0.59027,-0.2256 -0.81587,0l-1.15342,1.154c-0.05366,0.05308 -0.09578,0.11655 -0.12521,0.18752c-0.02943,0.0704 -0.04443,0.14541 -0.04443,0.22042v33.46588c0,0.07501 0.015,0.15002 0.04443,0.22042c0.02943,0.07097 0.07155,0.13501 0.12521,0.1881z" fill="#00b0d6" fill-opacity="1"></path></g><g><title>Shape</title><path d="M13.34198,20.234c1.27136,0 2.30517,1.0351 2.30632,2.30876c0,0.00058 -0.00057,0.00116 -0.00057,0.00173v4.04683c-0.31885,0 -0.57658,0.2582 -0.57658,0.57763c0,0.2917 0.2191,0.52275 0.49932,0.56203c-0.25312,1.00044 -1.15201,1.74615 -2.22849,1.74615c-1.27194,0 -2.30632,-1.03625 -2.30632,-2.30991c0,-0.00116 0.00058,-0.00173 0.00058,-0.00289v-4.0422c0.31885,0 0.57658,-0.25877 0.57658,-0.57763c0,-0.2917 -0.2191,-0.52333 -0.4999,-0.56203c0.25197,-1.00217 1.15201,-1.74846 2.22906,-1.74846zM9.88,27.15913c0,1.90928 1.5527,3.46199 3.46198,3.46199c1.90928,0 3.46198,-1.55271 3.46198,-3.46199c0,-0.00116 -0.00058,-0.00173 -0.00058,-0.00289v-4.61137c0,-0.00115 0.00058,-0.00173 0.00058,-0.00288c0,-1.90929 -1.55271,-3.46199 -3.46198,-3.46199c-1.90929,0 -3.46198,1.5527 -3.46198,3.46199c0,0.00115 0.00058,0.00173 0.00058,0.00288v4.61137c0,0.00116 -0.00058,0.00173 -0.00058,0.00289z" fill="#00b0d6" fill-opacity="1"></path></g><g><title>Path</title><path d="M14.50988,23.114c0.31851,0 0.577,-0.2585 0.577,-0.577c0,-0.3185 -0.25849,-0.577 -0.577,-0.577h-0.00634c-0.31851,0 -0.57354,0.2585 -0.57354,0.577c0,0.3185 0.2608,0.577 0.57988,0.577z" fill="#00b0d6" fill-opacity="1"></path></g><g><title>Path</title><path d="M13.35984,25.424c0.31849,0 0.57696,-0.25792 0.57696,-0.577c0,-0.31908 -0.25847,-0.577 -0.57696,-0.577h-0.00634c-0.31849,0 -0.5735,0.25792 -0.5735,0.577c0,0.31908 0.26078,0.577 0.57984,0.577z" fill="#00b0d6" fill-opacity="1"></path></g><g><title>Path</title><path d="M12.19988,27.734c0.31851,0 0.577,-0.25792 0.577,-0.577c0,-0.31908 -0.25849,-0.577 -0.577,-0.577h-0.00634c-0.31851,0 -0.57354,0.25792 -0.57354,0.577c0,0.31908 0.2608,0.577 0.57988,0.577z" fill="#00b0d6" fill-opacity="1"></path></g><g><title>Shape</title><path d="M29.51257,29.46769c-1.27286,0 -2.30799,-1.03513 -2.30799,-2.30799c0,-0.00115 -0.00058,-0.00173 -0.00058,-0.00288v-5.15779c2.59245,0.2885 4.61598,2.49205 4.61598,5.16067c0,0.00058 0.00058,0.00115 0.00058,0.00173c-0.00115,1.27228 -1.03571,2.30626 -2.30799,2.30626zM30.61694,21.07238c-0.37966,0.11078 -0.74606,0.26196 -1.09976,0.44198c-0.35139,-0.18118 -0.72182,-0.3312 -1.10841,-0.44429c0.13906,-0.48122 0.57873,-0.83607 1.1038,-0.83607c0.52622,0 0.96647,0.35601 1.10437,0.83838zM30.6706,22.27023c0.37216,-0.13098 0.75644,-0.22388 1.14996,-0.26773v1.51866c-0.32774,-0.46564 -0.7126,-0.888 -1.14996,-1.25093zM32.39756,20.81099c-0.00058,0 -0.00058,0 0,0c-0.21696,0 -0.4316,0.02078 -0.64567,0.04213c-0.24291,-1.01437 -1.15111,-1.77312 -2.23932,-1.77312c-1.08476,0 -1.99007,0.75471 -2.23645,1.76388c-0.21349,-0.02192 -0.42986,-0.03289 -0.64912,-0.03289c-0.31908,0 -0.577,0.2585 -0.577,0.577v5.77171c0,0.00116 0.00058,0.00231 0.00058,0.00404c0.0023,1.90698 1.55385,3.45795 3.46199,3.45795c1.90928,0 3.46198,-1.5527 3.46198,-3.46199v-5.77171c0,-0.3185 -0.25849,-0.577 -0.57699,-0.577z" fill="#00b0d6" fill-opacity="1"></path></g><g><title>Shape</title><path d="M21.41761,20.23199c1.27009,0 2.30354,1.03571 2.30354,2.30857c0,0.74721 -0.18021,1.81466 -0.44735,2.8873h-0.70528c-0.31838,0 -0.57574,0.25792 -0.57574,0.577c0,0.31908 0.25736,0.57699 0.57574,0.57699h0.38402c-0.4842,1.5654 -1.09622,2.88903 -1.53493,2.88903c-0.76574,0 -2.06576,-4.03148 -2.27245,-6.35332h0.54523c0.31838,0 0.57574,-0.2585 0.57574,-0.577c0,-0.3185 -0.25736,-0.577 -0.57574,-0.577h-0.49456c0.25735,-0.99301 1.15205,-1.73157 2.22178,-1.73157zM21.42257,30.62488c2.398,0 3.46256,-7.1092 3.46256,-8.08432c0,-1.68253 -1.20708,-3.08694 -2.79959,-3.39737c0.21983,-0.70393 0.86953,-1.21919 1.64502,-1.21919c0.31908,0 0.577,-0.2585 0.577,-0.577c0,-0.3185 -0.25792,-0.577 -0.577,-0.577c-0.94743,0 -1.78177,0.46506 -2.30799,1.17188c-0.52623,-0.70682 -1.36057,-1.17188 -2.308,-1.17188c-0.31908,0 -0.57699,0.2585 -0.57699,0.577c0,0.3185 0.25791,0.577 0.57699,0.577c0.77549,0 1.42519,0.51583 1.64502,1.21919c-1.59251,0.31043 -2.79959,1.71484 -2.79959,3.39737c0,0.97512 1.06456,8.08432 3.46257,8.08432z" fill="#00b0d6" fill-opacity="1"></path></g><g><title>Path</title><path d="M32.39331,32.94h-21.93631c-0.31908,0 -0.577,0.25792 -0.577,0.577c0,0.31908 0.25792,0.577 0.577,0.577h21.93631c0.31908,0 0.577,-0.25792 0.577,-0.577c0,-0.31908 -0.2585,-0.577 -0.577,-0.577z" fill="#00b0d6" fill-opacity="1"></path></g><g><title>Path</title><path d="M28.34687,34.67h-13.83987c-0.31908,0 -0.577,0.25792 -0.577,0.577c0,0.31908 0.25792,0.577 0.577,0.577h13.83987c0.31908,0 0.577,-0.25792 0.577,-0.577c0,-0.31908 -0.25792,-0.577 -0.577,-0.577z" fill="#00b0d6" fill-opacity="1"></path></g><g><title>Shape</title><path d="M17.38738,10.42152h8.08632c0.63704,0 1.15511,0.51869 1.15511,1.15649c0,0.63722 -0.51749,1.15532 -1.15337,1.15648c-0.00058,0 -0.00116,0 -0.00174,0h-8.08459c-0.63704,0 -1.15511,-0.51869 -1.15511,-1.15648c0,-0.63723 0.51749,-1.15533 1.15338,-1.15649zM25.46193,13.88596c0.00115,0 0.00173,0.00058 0.00288,0.00058c1.27286,0 2.30799,-1.03513 2.30799,-2.30798c0,-1.27285 -1.03513,-2.30798 -2.30799,-2.30798h-8.07393c-0.00116,0 -0.00173,-0.00058 -0.00289,-0.00058c-1.27286,0 -2.30799,1.03513 -2.30799,2.30798c0,1.27285 1.03513,2.30798 2.30799,2.30798z" fill="#00b0d6" fill-opacity="1"></path></g><g><title>Path</title><path d="M17.387,12.154v0h8.07682c0.31908,0 0.57699,-0.2585 0.57699,-0.577c0,-0.3185 -0.25791,-0.577 -0.57699,-0.577h-8.07682c-0.31908,0 -0.577,0.2585 -0.577,0.577c0,0.3185 0.25792,0.577 0.577,0.577z" fill="#00b0d6" fill-opacity="1"></path></g><g><title>Path</title><path d="M11.05984,12.14391c0.31849,0 0.57696,-0.25848 0.57696,-0.57696c0,-0.31848 -0.25847,-0.57696 -0.57696,-0.57696h-0.00634c-0.31849,0 -0.5735,0.25848 -0.5735,0.57696c0,0.31848 0.26136,0.57696 0.57984,0.57696z" fill="#00b0d6" fill-opacity="1"></path></g><g><title>Path</title><path d="M13.35984,12.14391c0.31849,0 0.57696,-0.25848 0.57696,-0.57696c0,-0.31848 -0.25847,-0.57696 -0.57696,-0.57696h-0.00634c-0.31849,0 -0.5735,0.25848 -0.5735,0.57696c0,0.31848 0.26078,0.57696 0.57984,0.57696z" fill="#00b0d6" fill-opacity="1"></path></g><g><title>Path</title><path d="M30.11984,12.14391c0.31849,0 0.57696,-0.25848 0.57696,-0.57696c0,-0.31848 -0.25847,-0.57696 -0.57696,-0.57696h-0.00634c-0.31849,0 -0.5735,0.25848 -0.5735,0.57696c0,0.31848 0.26078,0.57696 0.57984,0.57696z" fill="#00b0d6" fill-opacity="1"></path></g><g><title>Path</title><path d="M32.41984,12.14391c0.31849,0 0.57696,-0.25848 0.57696,-0.57696c0,-0.31848 -0.25847,-0.57696 -0.57696,-0.57696h-0.00634c-0.31849,0 -0.5735,0.25848 -0.5735,0.57696c0,0.31848 0.26078,0.57696 0.57984,0.57696z" fill="#00b0d6" fill-opacity="1"></path></g></g></g></svg>
