<?xml version="1.0" encoding="UTF-8"?>
<svg width="37" height="37" xmlns="http://www.w3.org/2000/svg" version="1.1" xmlns:xlink="http://www.w3.org/1999/xlink" xmlns:avocode="https://avocode.com/" viewBox="0 0 37 37"><defs></defs><desc>Generated with Avocode.</desc><g><g><title>snack</title><g><title>Shape</title><path d="M18.505,35.77666c-9.53888,0 -17.27167,-7.73279 -17.27167,-17.27166c0,-9.53888 7.73279,-17.27167 17.27167,-17.27167c9.53887,0 17.27166,7.73279 17.27166,17.27167c-0.01087,9.53437 -7.73729,17.26079 -17.27166,17.27166zM18.5,0c-10.21727,0 -18.5,8.28273 -18.5,18.5c0,10.21727 8.28273,18.5 18.5,18.5c10.21727,0 18.5,-8.28273 18.5,-18.5c-0.01155,-10.21248 -8.28752,-18.48845 -18.5,-18.5z" fill="#00b0d6" fill-opacity="1"></path></g><g><title>Shape</title><path d="M23.43992,18.49189c-2.0022,-0.00041 -3.80343,-1.2158 -4.55161,-3.0712c0.55322,-0.937 0.84665,-2.0043 0.85011,-3.09216c-0.00133,-0.57767 -0.08546,-1.15218 -0.24985,-1.70601c1.38659,-1.86058 3.88442,-2.50287 5.99784,-1.5423c2.11341,0.96057 3.2699,3.26383 2.77701,5.53061c-0.49289,2.26678 -2.50166,3.88306 -4.8235,3.88105zM15.25369,16.95623l0.20893,0.57937l-0.21632,-0.57691c-0.53812,0.19996 -1.10784,0.30143 -1.68191,0.29955c-1.51558,0.00566 -2.94802,-0.69217 -3.87783,-1.88913l-0.48565,0.37906l0.48504,-0.38029c-0.68421,-0.86545 -1.05505,-1.93719 -1.05204,-3.04047c-0.00147,-2.40485 1.73304,-4.45953 4.1039,-4.86144c2.37088,-0.4019 4.68556,0.96635 5.47663,3.23736l0.58241,-0.20032l-0.58056,0.20647c0.18458,0.51943 0.27881,1.06667 0.27857,1.61792c0.00146,0.96623 -0.28241,1.91137 -0.81599,2.71688l0.514,0.34023l-0.51462,-0.33961c-0.58308,0.87994 -1.43283,1.54981 -2.42457,1.9113zM6.281,22.03117c-0.49564,-2.26061 0.65008,-4.56131 2.7518,-5.52576c1.55675,1.70613 3.94014,2.39011 6.16344,1.76879c0.53255,0.79634 0.81807,1.73249 0.82069,2.69079c-0.00306,2.72174 -2.20642,4.92737 -4.92533,4.93043c-2.31202,0.00528 -4.31495,-1.60364 -4.81059,-3.86425zM18.95356,9.33852c-1.07992,-1.94361 -3.1234,-3.15448 -5.34684,-3.16828c-2.22345,-0.0138 -4.2818,1.1716 -5.38577,3.10167c-1.10397,1.93006 -1.08223,4.30525 0.05688,6.21478c-2.25536,1.15575 -3.57518,3.57256 -3.32835,6.09475c0.24683,2.52219 2.01016,4.63728 4.44679,5.33385c2.43662,0.69658 5.05145,-0.16689 6.59411,-2.17751c1.54265,-2.01062 1.69968,-4.75984 0.396,-6.93304c0.61999,-0.31867 1.18166,-0.73982 1.6613,-1.24567c1.46055,2.62717 4.60247,3.81854 7.43773,2.82028c2.83525,-0.99825 4.53771,-3.89528 4.03014,-6.85797c-0.50758,-2.96269 -3.07728,-5.1278 -6.08314,-5.12536c-1.69733,0.00029 -3.31875,0.7035 -4.47885,1.9425z" fill="#00b0d6" fill-opacity="1"></path></g><g><title>Rectangle</title><path d="M12.33,9.87v0h1.23325v0v1.23333v0h-1.23325v0z" fill="#00b0d6" fill-opacity="1"></path></g><g><title>Rectangle</title><path d="M10.48,11.72v0h1.23325v0v1.23333v0h-1.23325v0z" fill="#00b0d6" fill-opacity="1"></path></g><g><title>Rectangle</title><path d="M15.42,11.72v0h1.23333v0v1.23333v0h-1.23333v0z" fill="#00b0d6" fill-opacity="1"></path></g><g><title>Rectangle</title><path d="M13.57,14.8v0h1.23333v0v1.23333v0h-1.23333v0z" fill="#00b0d6" fill-opacity="1"></path></g><g><title>Shape</title><path d="M18.52874,27.44571c-0.16277,-2.59353 1.71424,-4.86865 4.29144,-5.20166c0.02222,1.34638 1.12011,2.42615 2.46667,2.42597c0.10891,0.00003 0.2177,-0.00738 0.3256,-0.0222c0.52061,0.91064 1.55715,1.39608 2.59,1.21298c0.39901,1.4816 0.0851,3.06451 -0.84911,4.28172c-0.93421,1.21721 -2.3821,1.92978 -3.91649,1.9275c-2.59862,-0.00819 -4.74534,-2.03078 -4.90811,-4.62431zM28.90977,24.22232l-0.60249,0.30833c-0.32883,0.1678 -0.71585,0.17815 -1.05318,0.02816c-0.33733,-0.14999 -0.5889,-0.44428 -0.68458,-0.80084l-0.1813,-0.6697l-0.6438,0.259c-0.44826,0.18822 -0.9655,0.09211 -1.31624,-0.24456c-0.35074,-0.33667 -0.46792,-0.84954 -0.2982,-1.30513l0.21769,-0.76405l-0.80537,-0.05796l-0.10545,-0.00555c-2.7148,-0.00433 -5.11416,1.76453 -5.91296,4.35916c-0.7988,2.59463 0.19027,5.40667 2.43743,6.92996c2.24717,1.52329 5.22556,1.40067 7.3399,-0.30219c2.11435,-1.70286 2.86891,-4.58668 1.85953,-7.10687z" fill="#00b0d6" fill-opacity="1"></path></g><g><title>Rectangle</title><path d="M24.67,11.1v0h1.23333v0v1.23333v0h-1.23333v0z" fill="#00b0d6" fill-opacity="1"></path></g><g><title>Rectangle</title><path d="M24.05,13.57v0h1.23333v0v1.23333v0h-1.23333v0z" fill="#00b0d6" fill-opacity="1"></path></g><g><title>Rectangle</title><path d="M20.97,14.18v0h1.23333v0v1.23325v0h-1.23333v0z" fill="#00b0d6" fill-opacity="1"></path></g><g><title>Rectangle</title><path d="M11.72,23.43v0h1.23333v0v1.23325v0h-1.23333v0z" fill="#00b0d6" fill-opacity="1"></path></g><g><title>Rectangle</title><path d="M7.4,20.35v0h1.23333v0v1.23333v0h-1.23333v0z" fill="#00b0d6" fill-opacity="1"></path></g><g><title>Rectangle</title><path d="M10.48,20.97v0h1.23325v0v1.23333v0h-1.23325v0z" fill="#00b0d6" fill-opacity="1"></path></g><g><title>Rectangle</title><path d="M20.97,26.52v0h1.23333v0v1.23333v0h-1.23333v0z" fill="#00b0d6" fill-opacity="1"></path></g><g><title>Rectangle</title><path d="M22.82,28.37v0h1.23333v0v1.23333v0h-1.23333v0z" fill="#00b0d6" fill-opacity="1"></path></g><g><title>Path</title><path d="M23.21667,4.28279l0.43166,-1.15563c-5.09305,-1.91167 -10.0899,-0.0777 -10.29833,0l0.43167,1.15563c0.04871,-0.01788 4.78718,-1.74331 9.435,0z" fill="#00b0d6" fill-opacity="1"></path></g><g><title>Path</title><path d="M10.84657,30.95l-0.71657,1.00393c2.17321,1.64085 4.80488,2.56149 7.52702,2.63317c0.31747,0.00402 0.63477,-0.0166 0.94905,-0.06167l-0.20041,-1.21668c-0.03392,0.0074 -3.52549,0.52232 -7.55909,-2.35875z" fill="#00b0d6" fill-opacity="1"></path></g><g transform="rotate(-44.99999999999999 8.5 30.5)"><title>Rectangle</title><path d="M8.63,29.34v0h1.23325v0v1.74387v0h-1.23325v0z" fill="#00b0d6" fill-opacity="1"></path></g></g></g></svg>
